<svg xmlns="http://www.w3.org/2000/svg" version="1.1" xmlns:xlink="http://www.w3.org/1999/xlink" xmlns:svgjs="http://svgjs.dev/svgjs" width="100%" height="100%" viewBox="0 0 1000 600"><rect width="1000" height="600" x="0" y="0" fill="#f7f7f7"/><g><rect width="333.3333333333333" height="333.3333333333333" rx="13.333333333333334" ry="13.333333333333334" y="209.17881903482066" fill="#0b1296" transform="matrix(0.6686043658205758,0,0,0.668604365820576,0,48.70806531603273)" x="186.95651245117188"/><path d="M253.14405095866425 442.88704301174874L253.14405095866425 442.88704301174874Q253.35587262629878 440.4359637148351 253.9005569145018 437.3494194150179L253.9005569145018 437.3494194150179Q254.41498096447134 434.80755940340373 255.32278811147643 431.23685129185054Q256.23059525848146 427.6661431802973 258.0462095524916 423.5204905423075L258.0462095524916 423.5204905423075Q263.79565481685694 425.42688555101813 269.7569217488568 426.90963722445974L269.7569217488568 426.90963722445974Q274.8406417720852 428.2108274685003 280.92294965701905 429.2699358066729Q286.9749973037195 430.32904414484545 292.5126209004503 430.32904414484545L292.5126209004503 430.32904414484545Q300.92496712936384 430.32904414484545 306.6138919172622 429.05811413903837Q312.3028167051606 427.7871841332313 315.75248386377984 425.2755843598506Q319.202151022399 422.76398458647 320.7151629340741 418.9814548072822Q322.1979146075157 415.229185266328 322.1979146075157 410.2059857195667L322.1979146075157 410.2059857195667Q322.1979146075157 404.5775814081353 320.6546424576071 400.64375043778006Q319.1113703076985 396.70991946742475 315.9643055314143 393.8351968352421Q312.8172407551301 390.9604742030594 307.9453423995363 388.93303824141475Q303.04318380570896 386.93586251800366 296.3556711561051 384.9992072710595L296.3556711561051 384.9992072710595Q284.6449589597398 381.8218822565418 276.56547535139475 378.03935247735404Q268.45573150481624 374.25682269816633 263.40227171982144 369.354664104339Q258.3488119348266 364.4827657487452 256.139814543781 358.2491566726438Q253.9005569145018 352.0155475965424 253.9005569145018 344.05710494113134L253.9005569145018 344.05710494113134Q253.9005569145018 332.5582144124006 257.47126502605505 324.35768985112156Q261.0117128993748 316.18742552807606 267.5781845960447 310.95240431368023Q274.1143960544811 305.7476433375179 283.40428919216623 303.29656404060427Q292.72444256808484 300.8454847436906 304.22333309681557 300.8454847436906L304.22333309681557 300.8454847436906Q313.02906242276464 300.8454847436906 319.68631483413503 302.2374557024317Q326.3435672455055 303.6294266611728 330.9128632187643 305.23321928754837L330.9128632187643 305.23321928754837Q336.2386651478606 307.13961429625897 340.1724961182159 309.59069359317266L340.1724961182159 309.59069359317266Q339.83963349764736 312.0417728900863 338.9015661124088 314.8862352840355L338.9015661124088 314.8862352840355Q338.0542794418708 317.33731458094917 336.5412675301957 320.63568054840084Q335.05851585675407 323.9340465158526 332.3956148922059 327.77709677150733L332.3956148922059 327.77709677150733Q329.2182898776882 325.6588800951622 324.95159628676436 323.9340465158526L324.95159628676436 323.9340465158526Q321.22958698404364 322.45129484241096 315.9643055314143 321.24088531307086Q310.699024078785 320.0002155454973 303.7996897615465 320.0002155454973L303.7996897615465 320.0002155454973Q296.23463020317104 320.0002155454973 291.0601294652422 321.18036483660387Q285.9158889655469 322.3605141277105 282.6175229980952 324.84185366285766Q279.31915703064345 327.3534534362383 277.8969258336689 331.13598321542605Q276.44443439846077 334.88825275638027 276.44443439846077 340.1232739707761L276.44443439846077 340.1232739707761Q276.44443439846077 345.963499949842 277.9271860719024 349.83681044373026Q279.4401979835775 353.740381175852 282.73856395102916 356.43354237863366Q286.0369299184809 359.15696381964887 291.3022113711102 361.1843997812935Q296.5674928237396 363.2118357429381 304.01151142918104 365.3300524192833L304.01151142918104 365.3300524192833Q315.1775393373433 368.4165967191005 323.0452012780538 371.9267843541867Q330.9128632187643 375.4369719892729 335.87554228905867 380.1273089154657Q340.80796112111943 384.787385603425 343.10773922686565 391.2328163471609Q345.37725709437825 397.67824709089683 345.37725709437825 406.69579808448043L345.37725709437825 406.69579808448043Q345.37725709437825 417.89208623087615 342.5025344621955 426.1228710303887Q339.6278118300129 434.35365582990124 333.363942515678 439.891279426632Q327.1000732013431 445.4289030233629 317.20497529898796 448.1523244643781Q307.30987739663277 450.8454856671597 293.35990757098836 450.8454856671597L293.35990757098836 450.8454856671597Q285.0686022950088 450.8454856671597 277.71536440426786 449.6350761378197Q270.3923867517604 448.42466660847964 264.94554386973005 446.91165469680453L264.94554386973005 446.91165469680453Q258.4698528877606 445.1263006410279 253.14405095866425 442.88704301174874ZM373.57979912800204 448.0918039879111L373.57979912800204 303.6294266611728L397.72746923833665 303.6294266611728L397.72746923833665 428.0897865155663Q402.20598449689487 428.0897865155663 407.04762261425526 427.9990058008658Q411.85900049338204 427.87796484793176 416.7006386107423 427.7871841332313Q421.5422767281026 427.6661431802973 426.1720931778284 427.51484198912976Q430.8019096275542 427.33328055972873 434.947562265544 427.12145889209427L434.947562265544 427.12145889209427Q444.7518794531986 426.6978155568252 454.10229306735084 426.27417222155617L454.10229306735084 426.27417222155617Q454.10229306735084 428.0897865155663 453.6181292556148 431.7210151035866Q453.16422568211226 435.32198345337326 452.49850044097514 438.983472279627Q451.8630354380716 442.6752213441143 451.2880909116351 445.36838254689593Q450.71314638519857 448.0918039879111 450.38028376463 448.0918039879111L450.38028376463 448.0918039879111L373.57979912800204 448.0918039879111Z " fill="#e66108" transform="matrix(0.6686043658205758,0,0,0.668604365820576,0,48.70806531603273)"/><path d="M603.6231769274954 410.7480124094397L603.6231769274954 410.7480124094397Q603.7782500354849 408.95359501698897 604.1770094560295 406.6939583005696L604.1770094560295 406.6939583005696Q604.5536155754328 404.83308100469475 605.2182146096739 402.21899147001346Q605.8828136439148 399.6049019353322 607.2120117123968 396.5698996789649L607.2120117123968 396.5698996789649Q611.4211389292565 397.965557650871 615.7853392541058 399.051069406798L615.7853392541058 399.051069406798Q619.5070938458555 400.0036613558768 623.9599073752702 400.7790268958246Q628.3905676035436 401.55439243577246 632.4446217124137 401.55439243577246L632.4446217124137 401.55439243577246Q638.6032394297138 401.55439243577246 642.7680600442907 400.62395378783503Q646.9328806588676 399.6935151398976 649.4583569889835 397.85479114516414Q651.9838333190993 396.01606715043073 653.0914983761677 393.24690450775984Q654.1770101320947 390.4998951662304 654.1770101320947 386.82244717676343L654.1770101320947 386.82244717676343Q654.1770101320947 382.7019331644692 653.0471917738848 379.8220040160915Q651.9173734156752 376.9420748677138 649.613430096973 374.837511259284Q647.3094867782709 372.7329476508541 643.7428052945108 371.24867647438253Q640.1539705096093 369.7865585990523 635.2580909573674 368.36874732600484L635.2580909573674 368.36874732600484Q626.6847634156583 366.0426507061613 620.7698320109133 363.27348806349045Q614.8327473050269 360.50432542081955 611.1331460144188 356.91549063591816Q607.4335447238104 353.3488091521581 605.8163537404907 348.78522911703647Q604.1770094560295 344.2216490819149 604.1770094560295 338.3953308817354L604.1770094560295 338.3953308817354Q604.1770094560295 329.97707644801596 606.7910989907108 323.9735318387055Q609.3830352242508 317.99214053053646 614.1903015719274 314.15961943308Q618.9754146184625 310.3492516367649 625.7764780688623 308.5548342443142Q632.5996948204033 306.7604168518635 641.0179492541226 306.7604168518635L641.0179492541226 306.7604168518635Q647.4645598862605 306.7604168518635 652.3382861373611 307.7794687043663Q657.2120123884619 308.7985205568692 660.5571608608084 309.9726455173617L660.5571608608084 309.9726455173617Q664.4561418616888 311.36830348926776 667.3360710100666 313.1627208817185L667.3360710100666 313.1627208817185Q667.0923846975115 314.9571382741692 666.4056323621292 317.03954858145767L666.4056323621292 317.03954858145767Q665.785339930171 318.83396597390845 664.6776748731025 321.24867579831744Q663.5921631171756 323.6633856227264 661.6426726167352 326.47685486768L661.6426726167352 326.47685486768Q659.3165759968917 324.9261237877843 656.192960535959 323.6633856227264L656.192960535959 323.6633856227264Q653.468104495571 322.57787386679945 649.613430096973 321.6917418211448Q645.7587556983751 320.7834564743487 640.7078030381435 320.7834564743487L640.7078030381435 320.7834564743487Q635.1694777528019 320.7834564743487 631.381263257628 321.64743521886203Q627.6152020635957 322.51141396337533 625.2004922391867 324.32798465696743Q622.7857824147777 326.1667086517009 621.7445772611335 328.93587129437174Q620.6812188063479 331.68288063590126 620.6812188063479 335.5154017333577L620.6812188063479 335.5154017333577Q620.6812188063479 339.7909888536415 621.7667305622749 342.6266113997365Q622.8743956193432 345.4843872469728 625.2891054437522 347.45603104855445Q627.7038152681612 349.4498281512775 631.558489666759 350.93409932774904Q635.4131640653568 352.41837050422066 640.8628761461331 353.96910158411634L640.8628761461331 353.96910158411634Q649.0374442672976 356.2287383005358 654.7973025640529 358.7985212329343Q660.5571608608084 361.36830416533286 664.1903022479925 364.80206584224476Q667.8012903340352 368.2136742180152 669.4849412207791 372.9323273611264Q671.1464388063816 377.65098050423757 671.1464388063816 384.2526642443649L671.1464388063816 384.2526642443649Q671.1464388063816 392.4493856666706 669.0418751979519 398.47508357712246Q666.937311589522 404.5007814875742 662.351578253259 408.5548355964444Q657.765844916996 412.60888970531454 650.5217154437692 414.60268680803756Q643.2775859705421 416.57433060961915 633.064914144372 416.57433060961915L633.064914144372 416.57433060961915Q626.9949096316375 416.57433060961915 621.6116574542853 415.68819856396453Q616.2505585780746 414.80206651830986 612.2629643726284 413.6944014612415L612.2629643726284 413.6944014612415Q607.5221579283759 412.38735669390087 603.6231769274954 410.7480124094397ZM684.4605727923431 391.806939933571L684.4605727923431 391.806939933571Q684.4605727923431 385.36032930143324 686.3436033893594 380.84105586859437Q688.2044806852341 376.32178243575555 691.8376220724183 373.44185328737785Q695.4486101584612 370.56192413900015 700.632482625541 369.1219595648113Q705.8163550926209 367.68199499062246 712.5066520373138 367.2832355700778L712.5066520373138 367.2832355700778L729.8748401321453 366.35279692214044L729.8748401321453 360.12771930141633Q729.8748401321453 355.9185920845566 729.1437811944803 353.1937360441685Q728.3905689556738 350.4688800037804 726.6847647677886 348.8295357193192Q724.9789605799032 347.19019143485804 722.1211847326668 346.5255924006171Q719.2855621865721 345.860993366376 715.0764349697123 345.860993366376L715.0764349697123 345.860993366376Q710.8673077528525 345.860993366376 707.1012465588202 346.79143201431344Q703.3130320636463 347.74402396339224 700.5217161198342 348.8295357193192L700.5217161198342 348.8295357193192Q697.1544143463464 350.1587337878012 694.3630984025342 351.775924771121L694.3630984025342 351.775924771121Q692.6572942146489 349.36121494671204 691.638242362146 347.14588483257535Q690.6191905096432 344.93055471843866 690.0875112822504 343.13613732598793L690.0875112822504 343.13613732598793Q689.3786056457266 341.12018692212354 689.1349193331716 339.2371563251073L689.1349193331716 339.2371563251073Q692.8788272260626 337.37627902923253 697.1544143463464 335.9806210573264L697.1544143463464 335.9806210573264Q700.8983222392375 334.7178828922685 705.7720484903381 333.72098434090697Q710.6457747414389 332.7019324884041 716.0068736176496 332.7019324884041L716.0068736176496 332.7019324884041Q724.8903473753377 332.7019324884041 730.7388188766587 334.2526635682998Q736.5651370768381 335.82554794933685 740.0432053560327 338.97131671141096Q743.4991203340859 342.117085473485 744.8726250048506 346.9243518211617Q746.2239763744741 351.7094648676969 746.2239763744741 358.2446887044001L746.2239763744741 358.2446887044001L746.2239763744741 401.709465543762L752.7813535123188 409.6625006535127L752.7813535123188 414.5583802057548L738.3595544692888 414.5583802057548L732.3781631611199 407.62439694850696L729.5646939161662 407.62439694850696Q729.1659344956216 408.0231563690516 727.5044369100191 409.37450773867494Q725.8207860232752 410.7480124094397 723.2066964885938 412.25443688705263Q720.614760255054 413.783014665807 717.2917650838489 414.9571396262994Q713.9909232137853 416.1091112856505 710.2470153208943 416.1091112856505L710.2470153208943 416.1091112856505Q704.3985438195733 416.1091112856505 699.6577373753208 414.35900049548246Q694.8947776299269 412.60888970531454 691.5274758564392 409.37450773867494Q688.1380207818102 406.1401257720354 686.2992967870766 401.66515894147926Q684.4605727923431 397.19019211092314 684.4605727923431 391.806939933571ZM701.4521547677715 390.4112819616649L701.4521547677715 390.4112819616649Q701.4521547677715 394.00011674656633 702.4712066202745 396.3705199686926Q703.468105171636 398.7409231908188 705.3068291663693 400.1587344638663Q707.1233998599615 401.55439243577246 709.7374893946427 402.0860716631652Q712.3515789293241 402.63990419169943 715.5416542936811 402.63990419169943L715.5416542936811 402.63990419169943Q718.5101966466242 402.63990419169943 721.102132880164 401.9088452540343Q723.7162224148452 401.1556330152278 725.6657129152856 400.22519436729044L725.6657129152856 400.22519436729044Q727.925349631705 399.20614251478753 729.8748401321453 397.8104845428814L729.8748401321453 397.8104845428814L729.8748401321453 376.8534616631484L714.2124562251989 377.87251351565124Q710.5571615368734 378.1161998282063 708.0981451101817 379.11309837956776Q705.6612819846313 380.1321502320706 704.1770108081597 381.7714945165318Q702.6927396316881 383.41083880099296 702.0724471997299 385.62616891512965Q701.4521547677715 387.84149902926634 701.4521547677715 390.4112819616649ZM772.7857844429731 414.5583802057548L772.7857844429731 347.0351183268685L761.2660678494623 347.0351183268685Q761.0223815369071 345.17424103099364 760.9559216334832 343.5348967465325Q760.8673084289177 341.8955524620714 760.8673084289177 340.56635439358934L760.8673084289177 340.56635439358934Q760.8673084289177 338.15164456918035 761.1109947414726 336.60091348928466L761.1109947414726 336.60091348928466Q761.1774546448968 335.73693474477136 761.3325277528864 334.96156920482355L761.3325277528864 334.96156920482355L772.7857844429731 334.96156920482355L772.7857844429731 326.3882416631145Q772.7857844429731 321.4923621108725 774.3143622217273 316.8623221723268Q775.8207866993404 312.2101289326397 778.9887087625558 308.6877540511624Q782.1344775246299 305.1432258685437 786.9638971734479 302.9943556578311Q791.7933168222659 300.8454854471185 798.4836137669587 300.8454854471185L798.4836137669587 300.8454854471185Q801.7623023358809 300.8454854471185 804.17701216029 301.15563166309767Q806.5917219846989 301.46577787907677 808.2975261725841 301.86453729962136L808.2975261725841 301.86453729962136Q810.3356298775899 302.32975662359013 811.731287849496 302.8835891521243L811.731287849496 302.8835891521243Q811.5762147415065 304.8109263514232 811.1774553209619 306.91548995985306L811.1774553209619 306.91548995985306Q810.8008492015587 308.70990735230373 810.0476369627521 311.0138506710059Q809.3165780250871 313.3177939897081 808.0759931611705 315.6438906095516L808.0759931611705 315.6438906095516Q806.901868200678 315.3337443935725 805.5062102287719 315.0235981775933L805.5062102287719 315.0235981775933Q804.3320852682795 314.7799118650383 802.7813541883837 314.5583788536246Q801.2084698073467 314.3146925410696 799.6577387274511 314.3146925410696L799.6577387274511 314.3146925410696Q794.3630997546644 314.3146925410696 791.749010219983 317.23892829173Q789.1349206853018 320.16316404239046 789.1349206853018 326.8534609870832L789.1349206853018 326.8534609870832L789.1349206853018 334.96156920482355L806.6581818881231 334.96156920482355Q806.7467950926886 335.27171542080265 806.8132549961125 335.73693474477136L806.8132549961125 335.73693474477136Q806.901868200678 336.13569416531595 806.9683281041022 336.7116799949915Q807.0569413086677 337.28766582466704 807.0569413086677 338.08518466575623L807.0569413086677 338.08518466575623Q807.0569413086677 339.63591574565197 806.6360285869818 341.8955524620714Q806.1929625641543 344.1551891784908 804.7973045922482 347.0351183268685L804.7973045922482 347.0351183268685L789.1349206853018 347.0351183268685L789.1349206853018 414.5583802057548L772.7857844429731 414.5583802057548ZM816.9373136177172 375.5464168958077L816.9373136177172 375.5464168958077Q816.9373136177172 364.3146932171347 819.6843229592467 356.2287383005358Q822.409178999635 348.12063008279546 827.3050585518769 342.91460431457426Q832.2230914052603 337.68642524521164 839.02415485566 335.2274088185199Q845.8473716072011 332.7905456929696 854.0219397283655 332.7905456929696L854.0219397283655 332.7905456929696Q861.5762154175715 332.7905456929696 867.5354534245993 335.3160220230854Q873.4946914316271 337.84149835320125 877.6152054439211 342.44938499060555Q881.7357194562154 347.0351183268685 883.9288962692107 353.41526905558214Q886.0999197810648 359.8175730854372 886.0999197810648 367.52692188263285L886.0999197810648 367.52692188263285Q886.0999197810648 370.16316471845556 885.878386769651 372.422801434875Q885.6347004570961 374.6824381512944 885.3245542411167 376.32178243575555L885.3245542411167 376.32178243575555Q885.0144080251376 378.2712729361958 884.6378019057346 379.8220040160915L884.6378019057346 379.8220040160915L833.5301361726011 379.57831770353647Q833.6187493771664 386.51230096078433 835.0144073490727 391.0758809959059Q836.4100653209788 395.63946103102745 839.1792279636496 398.27570386685017Q841.9483906063205 400.9341000038142 846.1575178231802 401.9753051574584Q850.36664504004 403.038663612244 856.1265033367953 403.038663612244L856.1265033367953 403.038663612244Q861.0223828890374 403.038663612244 864.9213638899179 402.41837118028576Q868.8203448907985 401.7759254471861 871.5452009311867 400.9341000038142L871.5452009311867 400.9341000038142Q874.6688163921195 400.0036613558768 877.1499861199526 398.7409231908188L877.1499861199526 398.7409231908188Q878.324111080445 401.46577923120697 878.9887101146859 403.81402915219184Q879.653309148927 406.1401257720354 879.963455364906 407.868083261062L879.963455364906 407.868083261062Q880.2736015808852 409.8840336649264 880.4286746888748 411.4347647448221L880.4286746888748 411.4347647448221Q877.8588917564763 412.7639628133041 874.1814437670092 413.783014665807L874.1814437670092 413.783014665807Q871.079981607218 414.64699341032025 866.5607081743791 415.3780523479854Q862.0414347415402 416.1091112856505 856.1265033367953 416.1091112856505L856.1265033367953 416.1091112856505Q846.7778102551384 416.1091112856505 839.4893741796287 414.0045476772206Q832.2230914052603 411.8999840687908 827.1942920461701 407.1148710222555Q822.1654926870798 402.32975797572027 819.5514031523986 394.5761025762419Q816.9373136177172 386.82244717676343 816.9373136177172 375.5464168958077ZM833.7738224851561 368.2136742180152L869.4406373227567 368.2136742180152L869.4406373227567 365.5774313821926Q869.4406373227567 360.65939852880916 868.244359061123 356.8933373347768Q867.0259274983479 353.10512283960304 864.9213638899179 350.53533990720445Q862.8168002814881 347.9655569748059 859.9368711331105 346.6363589063239Q857.0569419847326 345.32931413898325 853.7117935123864 345.32931413898325L853.7117935123864 345.32931413898325Q848.7937606590029 345.32931413898325 845.0720060672533 346.6142056051825Q841.3280981743623 347.8990970713818 838.8026218442463 350.6461064129113Q836.2549922129891 353.41526905558214 835.0144073490727 357.77946938043146Q833.7738224851561 362.14366970528073 833.7738224851561 368.2136742180152L833.7738224851561 368.2136742180152ZM906.348037024274 392.29431255868104L906.348037024274 347.0351183268685L896.1575184992454 347.0351183268685Q896.0689052946799 346.1711395823552 896.0024453912557 345.17424103099364L896.0024453912557 345.17424103099364Q895.9138321866902 344.3102622864804 895.8916788855489 343.13613732598793Q895.847372283266 341.96201236549547 895.847372283266 340.56635439358934L895.847372283266 340.56635439358934Q895.847372283266 339.17069642168326 895.9138321866902 337.95226485890805Q896.0024453912557 336.7559865972743 896.1575184992454 334.96156920482355L896.1575184992454 334.96156920482355L906.348037024274 334.96156920482355L906.348037024274 322.57787386679945L915.3201239865276 312.45381524519473L922.2541072437756 312.45381524519473L922.2541072437756 334.96156920482355L944.2966418794355 334.96156920482355Q944.4517149874251 335.73693474477136 944.5624814931319 336.82244650069833Q944.673247998839 337.9301115577667 944.673247998839 338.9270101091282L944.673247998839 338.9270101091282Q944.673247998839 340.72142750157894 944.318795180577 342.2056986780505Q943.964342362315 343.6899698545221 943.5877362429118 344.77548161044905L943.5877362429118 344.77548161044905Q943.1225169189432 346.01606647436563 942.5022244869848 347.0351183268685L942.5022244869848 347.0351183268685L922.2541072437756 347.0351183268685L922.2541072437756 392.2056993541156Q922.2541072437756 397.8990977474469 924.1592911419331 400.4688806798454Q926.0644750400905 403.038663612244 930.2736022569503 403.038663612244L930.2736022569503 403.038663612244Q932.0680196494012 403.038663612244 934.0396634509826 402.5955975894167Q936.0334605537058 402.1746848677307 937.8278779461565 401.55439243577246L937.8278779461565 401.55439243577246Q939.8438283500208 400.8454867992487 941.9483919584508 400.0036613558768L941.9483919584508 400.0036613558768Q943.4991230383465 402.01961175974117 944.4074083851425 403.96910226018144Q945.2935404307972 405.9185927606217 945.6922998513418 407.4693238405174L945.6922998513418 407.4693238405174Q946.1575191753103 409.26374123296813 946.2239790787345 410.8144723128638L946.2239790787345 410.8144723128638Q944.0529555668805 412.2987434893354 941.3280995264923 413.47286844982784L941.3280995264923 413.47286844982784Q938.9133897020835 414.4697670011893 935.568241229737 415.2894391434199Q932.2230927573906 416.1091112856505 927.8588924325414 416.1091112856505L927.8588924325414 416.1091112856505Q921.7888879198068 416.1091112856505 917.6905272086539 414.60268680803756Q913.5921664975011 413.0741090292832 911.0666901673852 410.0834133751987Q908.5412138372695 407.0705644199728 907.4557020813423 402.5955975894167Q906.348037024274 398.12063075886056 906.348037024274 392.29431255868104L906.348037024274 392.29431255868104ZM975.9094026081663 414.5583802057548L952.0059906766313 334.96156920482355L969.5292518794525 334.96156920482355L984.7042631612888 393.13613800205303L988.0494116336353 408.70990870443393L991.4831733105472 393.13613800205303L1007.1455572174935 334.96156920482355L1025.2004976477074 334.96156920482355L989.7773691226618 450.8454874753138L972.874400351799 450.8454874753138L985.8783881217813 414.5583802057548L975.9094026081663 414.5583802057548ZM1038.514631633669 414.5583802057548L1038.514631633669 308.7985205568692L1056.19296594448 308.7985205568692L1056.19296594448 399.9150481513113Q1059.471654513402 399.9150481513113 1063.0161826960207 399.8485882478872Q1066.5607108786394 399.75997504332173 1070.105239061258 399.6935151398976Q1073.6497672438768 399.6049019353322 1077.0392223185058 399.4941354296253Q1080.4286773931353 399.36121562277714 1083.4636796495024 399.20614251478753L1083.4636796495024 399.20614251478753Q1090.6191959181638 398.8959962988084 1097.4867192719876 398.58585008282927L1097.4867192719876 398.58585008282927Q1097.4867192719876 399.9150481513113 1097.1322664537256 402.5734442882753Q1096.777813635464 405.20968712409797 1096.312594311495 407.89023656220337Q1095.8473749875266 410.59293930145014 1095.4264622658407 412.5645831030318Q1094.9833962430134 414.5583802057548 1094.7618632315998 414.5583802057548L1094.7618632315998 414.5583802057548L1038.514631633669 414.5583802057548ZM1123.4946948119523 321.4923621108725L1123.4946948119523 321.4923621108725Q1121.3236713000983 321.4923621108725 1119.3963341007998 320.7169965709246Q1117.491150202642 319.94163103097674 1116.0511856284534 318.6124329624947Q1114.6112210542642 317.28323489401276 1113.7693956108924 315.5331241038448Q1112.9054168663793 313.78301331367675 1112.9054168663793 311.74490960867104L1112.9054168663793 311.74490960867104Q1112.9054168663793 309.64034600024115 1113.7693956108924 307.8680819089318Q1114.6112210542642 306.07366451648113 1116.0511856284534 304.74446644799906Q1117.491150202642 303.41526837951704 1119.3963341007998 302.684209441852Q1121.3236713000983 301.9309972030455 1123.4946948119523 301.9309972030455L1123.4946948119523 301.9309972030455Q1125.6657183238062 301.9309972030455 1127.6152088242466 302.684209441852Q1129.564699324687 303.41526837951704 1131.0046638988756 304.74446644799906Q1132.4446284730648 306.07366451648113 1133.308607217578 307.8680819089318Q1134.1725859620915 309.64034600024115 1134.1725859620915 311.74490960867104L1134.1725859620915 311.74490960867104Q1134.1725859620915 313.78301331367675 1133.308607217578 315.5331241038448Q1132.4446284730648 317.28323489401276 1131.0046638988756 318.6124329624947Q1129.564699324687 319.94163103097674 1127.6152088242466 320.7169965709246Q1125.6657183238062 321.4923621108725 1123.4946948119523 321.4923621108725ZM1114.5447611508403 401.1556330152278L1114.5447611508403 334.96156920482355L1130.7388242851794 334.96156920482355L1130.7388242851794 401.46577923120697L1135.3245576214422 404.74446780012926L1135.3245576214422 414.5583802057548L1130.893897393169 414.5583802057548L1130.7388242851794 414.4033070977652L1130.7388242851794 414.5583802057548Q1123.0294754879837 414.5583802057548 1118.7760416688411 411.4347647448221Q1114.5447611508403 408.3333025850307 1114.5447611508403 401.1556330152278L1114.5447611508403 401.1556330152278ZM1155.9714342851962 414.5583802057548L1155.9714342851962 349.20614183872243L1149.8128165678963 342.91460431457426L1149.8128165678963 334.09759046031024L1164.1460024063608 334.09759046031024L1170.8362993510536 340.1897482741861L1173.0959360674728 339.70237564907603Q1173.649768596007 339.2371563251073 1175.64356569873 338.08518466575623Q1177.6152095003117 336.9110597052638 1180.5394452509722 335.73693474477136Q1183.4636810016327 334.56280978427895 1187.2075888945237 333.6766777386243Q1190.9514967874147 332.7905456929696 1195.072010799709 332.7905456929696L1195.072010799709 332.7905456929696Q1201.6072346364122 332.7905456929696 1206.7024938989266 334.7178828922685Q1211.8199064625824 336.6673733927088 1215.3201280429184 340.3005147798929Q1218.820349623254 343.91150286593574 1220.6147670157052 348.98460882730876Q1222.4091844081559 354.0355614875404 1222.4091844081559 360.34925231283L1222.4091844081559 360.34925231283L1222.4091844081559 414.5583802057548L1205.661288745282 414.5583802057548L1205.661288745282 361.9885965972912Q1205.661288745282 353.50388226014763 1202.1167605626638 349.4941347535602Q1198.572232380045 345.4843872469728 1190.862883582849 345.4843872469728L1190.862883582849 345.4843872469728Q1187.052515786534 345.4843872469728 1183.7738272176116 346.1489862812138Q1180.4951386486896 346.79143201431344 1178.0139689208563 347.65541075882675L1178.0139689208563 347.65541075882675Q1175.134039772479 348.58584940676417 1172.6307167435043 349.84858757182207L1172.6307167435043 349.84858757182207L1172.6307167435043 414.5583802057548L1155.9714342851962 414.5583802057548ZM1239.5336861904325 375.5464168958077L1239.5336861904325 375.5464168958077Q1239.5336861904325 364.3146932171347 1242.2585422308207 356.2287383005358Q1244.9833982712084 348.12063008279546 1249.901431124592 342.91460431457426Q1254.797310676834 337.68642524521164 1261.6205274283752 335.2274088185199Q1268.4437441799164 332.7905456929696 1276.6183123010806 332.7905456929696L1276.6183123010806 332.7905456929696Q1284.1725879902865 332.7905456929696 1290.1318259973145 335.3160220230854Q1296.0910640043421 337.84149835320125 1300.2115780166364 342.44938499060555Q1304.3320920289307 347.0351183268685 1306.525268841926 353.41526905558214Q1308.6962923537799 359.8175730854372 1308.6962923537799 367.52692188263285L1308.6962923537799 367.52692188263285Q1308.6962923537799 370.16316471845556 1308.4747593423663 372.422801434875Q1308.231073029811 374.6824381512944 1307.920926813832 376.32178243575555L1307.920926813832 376.32178243575555Q1307.6107805978527 378.2712729361958 1307.212021177308 379.8220040160915L1307.212021177308 379.8220040160915L1256.1265087453162 379.57831770353647Q1256.2151219498814 386.51230096078433 1257.610779921788 391.0758809959059Q1259.006437893694 395.63946103102745 1261.775600536365 398.27570386685017Q1264.5447631790357 400.9341000038142 1268.7538903958953 401.9753051574584Q1272.9408643116135 403.038663612244 1278.7228759095105 403.038663612244L1278.7228759095105 403.038663612244Q1283.6187554617527 403.038663612244 1287.517736462633 402.41837118028576Q1291.4167174635136 401.7759254471861 1294.1415735039018 400.9341000038142L1294.1415735039018 400.9341000038142Q1297.2430356636933 400.0036613558768 1299.7463586926679 398.7409231908188L1299.7463586926679 398.7409231908188Q1300.9204836531599 401.46577923120697 1301.5629293862598 403.81402915219184Q1302.2275284205007 406.1401257720354 1302.53767463648 407.868083261062L1302.53767463648 407.868083261062Q1302.8478208524589 409.8840336649264 1303.0028939604485 411.4347647448221L1303.0028939604485 411.4347647448221Q1300.43311102805 412.7639628133041 1296.7778163397243 413.783014665807L1296.7778163397243 413.783014665807Q1293.6763541799332 414.64699341032025 1289.1570807470944 415.3780523479854Q1284.6378073142555 416.1091112856505 1278.7228759095105 416.1091112856505L1278.7228759095105 416.1091112856505Q1269.3741828278535 416.1091112856505 1262.0857467523438 414.0045476772206Q1254.797310676834 411.8999840687908 1249.7906646188853 407.1148710222555Q1244.7618652597948 402.32975797572027 1242.1477757251137 394.5761025762419Q1239.5336861904325 386.82244717676343 1239.5336861904325 375.5464168958077ZM1256.3701950578711 368.2136742180152L1292.0370098954718 368.2136742180152L1292.0370098954718 365.5774313821926Q1292.0370098954718 360.65939852880916 1290.8185783326967 356.8933373347768Q1289.622300071063 353.10512283960304 1287.517736462633 350.53533990720445Q1285.4131728542034 347.9655569748059 1282.5332437058255 346.6363589063239Q1279.653314557448 345.32931413898325 1276.3081660851017 345.32931413898325L1276.3081660851017 345.32931413898325Q1271.3901332317178 345.32931413898325 1267.6462253388272 346.6142056051825Q1263.9244707470775 347.8990970713818 1261.3768411158203 350.6461064129113Q1258.8513647857044 353.41526905558214 1257.610779921788 357.77946938043146Q1256.3701950578711 362.14366970528073 1256.3701950578711 368.2136742180152L1256.3701950578711 368.2136742180152Z " fill="#e66108" transform="matrix(0.6686043658205758,0,0,0.668604365820576,0,48.70806531603273)"/></g></svg>